:version 1.10
:name ASF
:units
  mass 1
  length 1
  angle deg
:documentation
  ASF file generated by Kaydara
:root
  axis xyz
  order  tx ty tz rx ry rz
  position 0 0 0
  orientation 0 0 0
:bonedata
  begin
    id 1
    name SpineDummy
    direction 0.999998 -0.00179978 1.38929e-006
    length 3.60008
    axis 0 0 0 xyz
  end
  begin
    id 2
    name Spine
    direction 0.964365 0.262802 0.0305839
    length 8.13928
    axis 1.33928 -1.75354 15.2838 xyz
    dof rx ry rz
  end
  begin
    id 3
    name Spine1
    direction 0.811168 0.572065 0.12144
    length 7.14954
    axis 2.2224 -6.9761 35.2157 xyz
    dof rx ry rz
  end
  begin
    id 4
    name Neck
    direction 0 0 0
    length 0
    axis 2.2224 -6.9761 35.2157 xyz
    dof rx ry rz
  end
  begin
    id 5
    name HeadDummy
    direction 0.810939 0.572387 0.121455
    length 3.55534
    axis 2.2224 -6.9761 35.2157 xyz
  end
  begin
    id 6
    name Head
    direction 0.998226 -0.000232542 0.0595419
    length 7.35666
    axis -3.03688 -3.41352 -0.0133467 xyz
    dof rx ry rz
  end
  begin
    id 7
    name R_ClavicleDummy
    direction 0.531669 -0.194489 -0.824319
    length 2.49392
    axis 2.2224 -6.9761 35.2157 xyz
  end
  begin
    id 8
    name R_Clavicle
    direction -0.155119 0.0480802 -0.986725
    length 4.485
    axis -54.2764 80.6538 162.779 xyz
    dof rx ry rz
  end
  begin
    id 9
    name R_UpperArm
    direction -0.955567 0.200068 -0.216484
    length 10.1122
    axis -72.9943 12.5026 168.175 xyz
    dof rx ry rz
  end
  begin
    id 10
    name R_Forearm
    direction -0.61433 0.385743 0.688332
    length 9.39148
    axis -117.015 -43.4982 147.875 xyz
    dof rx ry rz
  end
  begin
    id 11
    name R_Hand
    direction -0.699429 0.0170333 0.714499
    length 3.66324
    axis -45.0303 -36.7097 175.478 xyz
    dof rx ry rz
  end
  begin
    id 12
    name L_ClavicleDummy
    direction 0.40287 -0.36502 0.839319
    length 2.49392
    axis 2.2224 -6.9761 35.2157 xyz
  end
  begin
    id 13
    name L_Clavicle
    direction -0.231271 -0.0726419 0.970174
    length 4.485
    axis 18.4357 -75.9711 -162.563 xyz
    dof rx ry rz
  end
  begin
    id 14
    name L_UpperArm
    direction -0.917494 0.144359 0.370629
    length 10.1122
    axis 56.0417 -21.7544 171.058 xyz
    dof rx ry rz
  end
  begin
    id 15
    name L_Forearm
    direction -0.496786 0.615074 -0.612281
    length 9.39148
    axis 89.8094 37.7546 128.927 xyz
    dof rx ry rz
  end
  begin
    id 16
    name L_Hand
    direction -0.409932 0.64962 -0.640274
    length 3.66324
    axis -0.424369 32.133 128.52 xyz
    dof rx ry rz
  end
  begin
    id 17
    name L_ThighDummy
    direction -1.84081e-006 1.87549e-006 1
    length 3.13049
    axis 0 0 0 xyz
  end
  begin
    id 18
    name L_Thigh
    direction -0.947739 0.307978 0.083308
    length 17.9961
    axis 173.219 -4.77873 161.998 xyz
    dof rx ry rz
  end
  begin
    id 19
    name L_Calf
    direction -0.728814 -0.684427 0.0197583
    length 13.3367
    axis 167.331 -1.13214 -136.799 xyz
    dof rx ry rz
  end
  begin
    id 20
    name L_Foot
    direction -0.9028 0.418719 0.0981191
    length 5.8674
    axis 163.436 11.5135 -155.37 xyz
    dof rx ry rz
  end
  begin
    id 21
    name L_Toe0
    direction -0.35341 0.886259 0.299411
    length 4.75286
    axis 169.316 -17.4222 111.74 xyz
    dof rx ry rz
  end
  begin
    id 22
    name R_ThighDummy
    direction 9.32778e-007 -8.82053e-007 -1
    length 3.13049
    axis 0 0 0 xyz
  end
  begin
    id 23
    name R_Thigh
    direction -0.925064 0.37528 -0.0585023
    length 17.9961
    axis -178.698 3.35385 157.919 xyz
    dof rx ry rz
  end
  begin
    id 24
    name R_Calf
    direction -0.68969 -0.718776 -0.0876886
    length 13.3367
    axis -160.504 5.03065 -133.817 xyz
    dof rx ry rz
  end
  begin
    id 25
    name R_Foot
    direction -0.857405 0.418858 -0.299022
    length 5.8674
    axis -161.328 4.38911 -154.413 xyz
    dof rx ry rz
  end
  begin
    id 26
    name R_Toe0
    direction -0.100745 0.952789 -0.286433
    length 4.75286
    axis 171.683 16.6445 96.0359 xyz
    dof rx ry rz
  end
:hierarchy
  begin
    root SpineDummy L_ThighDummy R_ThighDummy
    SpineDummy Spine
    Spine Spine1
    Spine1 Neck
    Neck HeadDummy R_ClavicleDummy L_ClavicleDummy
    HeadDummy Head
    R_ClavicleDummy R_Clavicle
    R_Clavicle R_UpperArm
    R_UpperArm R_Forearm
    R_Forearm R_Hand
    L_ClavicleDummy L_Clavicle
    L_Clavicle L_UpperArm
    L_UpperArm L_Forearm
    L_Forearm L_Hand
    L_ThighDummy L_Thigh
    L_Thigh L_Calf
    L_Calf L_Foot
    L_Foot L_Toe0
    R_ThighDummy R_Thigh
    R_Thigh R_Calf
    R_Calf R_Foot
    R_Foot R_Toe0
  end

:SAMPLES-PER-SECOND 30
:FULLY-SPECIFIED
:DEGREES
191
root  -14.612 13.3738 -28.81 53.6258 -54.0018 -35.3579
Spine  -1.88755 6.50227 16.4716
Spine1  -0.931393 23.4826 13.4013
Neck  3.97569e-016 0 -2.38542e-015
Head  -4.16168 -3.01187 63.0518
R_Clavicle  0.436628 -28.254 1.90853
R_UpperArm  32.2324 -7.54369 62.583
R_Forearm  -8.42835 -36.1821 14.1584
R_Hand  -3.84156 21.2336 -33.5602
L_Clavicle  -0.437865 14.8297 1.7987
L_UpperArm  30.5225 47.1147 101.335
L_Forearm  35.5352 2.03154 -7.90285
L_Hand  45.5365 -61.7368 -72.817
L_Thigh  -6.81377 53.3807 42.4493
L_Calf  -26.9416 -6.9809 42.4477
L_Foot  5.88385 5.87389 16.8318
L_Toe0  0.505156 0.034446 -6.1361
R_Thigh  -12.5192 -57.7038 22.2248
R_Calf  15.9856 12.2168 42.9542
R_Foot  -2.90596 -13.9374 -4.5256
R_Toe0  -1.78853 -0.272779 -17.3235
192
root  -16.4052 14.1656 -29.2741 45.9066 -44.8532 -41.3167
Spine  -1.92464 2.61594 19.8043
Spine1  0.53214 23.9108 15.0805
Neck  3.97569e-016 0 -2.38542e-015
Head  -5.10366 -5.81159 64.6016
R_Clavicle  0.309836 -30.0347 3.61164
R_UpperArm  23.589 -25.8222 83.3743
R_Forearm  -23.724 -5.41106 -9.7596
R_Hand  -12.5333 38.0567 -48.4403
L_Clavicle  -0.450081 16.7693 3.54084
L_UpperArm  37.3106 42.6671 111.277
L_Forearm  36.1641 -0.248232 -12.2635
L_Hand  27.7967 -55.9507 -52.6357
L_Thigh  3.85209 52.2213 57.9502
L_Calf  -25.2907 -6.79785 40.4659
L_Foot  6.61855 5.18407 20.4254
L_Toe0  0.505156 0.034446 -6.1361
R_Thigh  0.0569399 -55.5273 6.25665
R_Calf  16.9577 11.6187 43.4319
R_Foot  -2.29463 -12.3496 -5.51792
R_Toe0  -1.78853 -0.272777 -17.3235
193
root  -17.9813 14.7655 -29.3028 32.5995 -39.3334 -44.2212
Spine  -1.26505 1.33677 21.2079
Spine1  0.911392 18.2722 16.0414
Neck  3.97569e-016 0 -2.38542e-015
Head  -4.68397 -6.06997 64.9592
R_Clavicle  0.345972 -25.2285 4.79995
R_UpperArm  20.8716 -38.1146 85.088
R_Forearm  -42.0061 4.20755 -13.2704
R_Hand  -7.4428 39.2536 -36.0732
L_Clavicle  -0.407157 18.6405 5.04337
L_UpperArm  37.707 38.4399 113.412
L_Forearm  30.2424 0.758898 -13.6981
L_Hand  22.8685 -51.5519 -48.567
L_Thigh  4.85657 48.3245 64.266
L_Calf  -19.3954 -8.21436 42.0489
L_Foot  7.56809 7.57065 20.2012
L_Toe0  0.505156 0.034446 -6.1361
R_Thigh  6.87487 -49.8856 -4.18002
R_Calf  21.3042 11.4679 38.8935
R_Foot  -1.01846 -7.53146 -5.95066
R_Toe0  -1.78853 -0.272774 -17.3235
194
root  -19.4427 15.2898 -28.7978 11.9869 -33.7263 -40.4405
Spine  0.0872638 0.3904 19.2012
Spine1  0.283271 5.78843 15.8832
Neck  3.97569e-016 0 -2.38542e-015
Head  -5.92673 -1.30492 64.4912
R_Clavicle  0.542235 -18.2477 5.38592
R_UpperArm  21.2039 -49.2719 81.0273
R_Forearm  -51.5125 3.87579 -9.4718
R_Hand  -7.8051 38.0516 -37.4109
L_Clavicle  -0.369471 20.1629 5.36003
L_UpperArm  33.5515 34.4626 110.329
L_Forearm  20.7451 4.24573 -12.8539
L_Hand  24.3322 -50.0864 -52.9427
L_Thigh  3.37031 44.2474 63.4168
L_Calf  -17.3319 -7.9764 44.3938
L_Foot  7.76857 9.43899 18.2969
L_Toe0  0.505156 0.034446 -6.1361
R_Thigh  10.8388 -47.4997 -4.56423
R_Calf  16.0311 9.83737 32.3362
R_Foot  -1.487 -9.10646 -4.80651
R_Toe0  -1.78853 -0.272771 -17.3235
195
root  -20.7326 15.7706 -27.7608 -10.1636 -23.0686 -34.5665
Spine  1.0317 -1.82668 17.0088
Spine1  -0.891374 -10.3109 15.2298
Neck  3.97569e-016 0 -2.38542e-015
Head  -9.82929 5.60193 62.4421
R_Clavicle  0.707596 -13.7509 5.81956
R_UpperArm  21.0358 -56.2134 79.3058
R_Forearm  -53.7285 2.65669 -6.92256
R_Hand  -11.2111 41.6035 -43.9038
L_Clavicle  -0.382663 20.5548 4.87924
L_UpperArm  26.4867 30.4938 102.656
L_Forearm  12.1937 8.68516 -10.9241
L_Hand  19.5985 -45.0483 -49.3841
L_Thigh  3.68098 40.1869 60.0774
L_Calf  -17.8927 -7.19359 46.417
L_Foot  7.66587 9.97212 17.3085
L_Toe0  0.505156 0.034446 -6.1361
R_Thigh  10.8307 -50.1356 1.16823
R_Calf  12.5501 8.45456 27.2121
R_Foot  -23.0062 -43.0328 16.2418
R_Toe0  -1.78853 -0.272767 -17.3235
196
root  -21.4034 16.3028 -26.127 -28.4722 -11.1983 -33.4691
Spine  1.36975 -4.03182 18.0026
Spine1  -1.78829 -22.7643 14.5032
Neck  3.97569e-016 0 -2.38542e-015
Head  -14.1777 9.13521 59.2488
R_Clavicle  0.815103 -11.1994 6.06661
R_UpperArm  18.4015 -61.2618 81.151
R_Forearm  -54.5782 3.39367 -6.6924
R_Hand  -17.2181 47.7381 -52.961
L_Clavicle  -0.405247 19.0074 4.87574
L_UpperArm  23.1915 26.2808 87.0812
L_Forearm  1.63562 10.0546 -6.58354
L_Hand  5.85329 -32.3721 -25.6881
L_Thigh  5.64856 36.5217 57.3652
L_Calf  -18.1658 -6.1949 48.6651
L_Foot  7.05253 10.4828 14.7532
L_Toe0  0.505156 0.034446 -6.1361
R_Thigh  15.5977 -52.8546 4.81371
R_Calf  28.0451 8.25112 26.4241
R_Foot  -61.9775 -54.7253 63.8018
R_Toe0  -1.78853 -0.272764 -17.3235
